<svg t="1763279503535" class="icon" viewBox="0 0 1025 1024" version="1.1" xmlns="http://www.w3.org/2000/svg" p-id="2786" width="200" height="200"><path d="M512.001473 0C229.255967 0 0.001473 229.254495 0.001473 512c0 282.745505 229.254495 512 512 512 282.745505 0 512-229.254495 512-512C1024.001473 229.254495 794.746978 0 512.001473 0z m0 937.146145c-234.746784 0-425.135917-190.399361-425.135917-425.146145S277.264917 86.864083 512.001473 86.864083c234.746784 0 425.146145 190.399361 425.146144 425.135917 0 234.736556-190.409588 425.146145-425.146144 425.146145z m6.402557-608.805434c60.578825 0 101.714742 38.630124 106.286536 95.312186 0.337515 4.807032 4.336556 8.45833 9.143588 8.45833h64.802876c2.976268 0 5.369557-2.403516 5.369557-5.369557 0-99.086217-78.170515-168.450659-185.940072-168.450659-125.606712 0-198.059928 84.798082-198.059928 224.907711v59.770835c0 139.086856 72.453216 222.74966 198.059928 222.74966 107.432042 0 185.940072-67.196165 185.940072-161.598082 0-2.966041-2.403516-5.369557-5.369557-5.369557h-64.905154c-4.807032 0-8.693568 3.651298-9.143587 8.345825-4.796804 52.68302-45.830443 88.909628-106.286537 88.909629-74.631722 0-116.688134-54.738793-116.688134-152.679505v-60.118578c0.102277-99.433959 42.271195-154.868238 116.790412-154.868238z m0 0" fill="currentColor" p-id="2787"></path></svg>