<svg t="1763279056331" class="icon" viewBox="0 0 1024 1024" version="1.1" xmlns="http://www.w3.org/2000/svg" p-id="1044" width="200" height="200">
  <path d="M606.933333 572.330667l226.261334 226.304a32 32 0 0 1-45.226667 45.226666l-226.304-226.261333a32 32 0 1 1 45.226667-45.226667z m226.261334-407.296a32 32 0 0 1 0 45.226666L214.698667 828.842667a32 32 0 0 1-45.226667-45.269334l279.04-279.082666-279.04-279.04a32 32 0 1 1 45.226667-45.269334l279.082666 279.04 294.186667-294.144a32 32 0 0 1 45.226667 0z" fill="currentColor" p-id="1045"></path>
</svg>