<svg t="1763279610454" class="icon" viewBox="0 0 1024 1024" version="1.1" xmlns="http://www.w3.org/2000/svg" p-id="3768" width="200" height="200"><path d="M96 64c-17.7 0-32 14.3-32 32v832c0 17.7 14.3 32 32 32h832c17.7 0 32-14.3 32-32V96c0-17.7-14.3-32-32-32H96z m0-64h832c53 0 96 43 96 96v832c0 53-43 96-96 96H96c-53 0-96-43-96-96V96C0 43 43 0 96 0z m619 352h117c17.7 0 32 14.3 32 32s-14.3 32-32 32H640c-17.7 0-32-14.3-32-32V192c0-17.7 14.3-32 32-32s32 14.3 32 32v112.5l135.1-135.1c12.5-12.5 32.8-12.5 45.3 0s12.5 32.8 0 45.3L715 352zM341 672H224c-17.7 0-32-14.3-32-32s14.3-32 32-32h192c17.7 0 32 14.3 32 32v192c0 17.7-14.3 32-32 32s-32-14.3-32-32V719.5L248.9 854.6c-12.5 12.5-32.8 12.5-45.3 0s-12.5-32.8 0-45.3L341 672z" fill="currentColor
" p-id="3769"></path></svg>